<mxfile host="app.diagrams.net" modified="2020-07-29T13:28:31.067Z" agent="5.0 (Windows NT 10.0; Win64; x64) AppleWebKit/537.36 (KHTML, like Gecko) Chrome/83.0.4103.116 Safari/537.36" etag="mdxTATHfxo-pFJA9RgMe" version="13.5.5" type="github">
  <diagram id="gPHuf9VsB1EnmT0cgGwY" name="Page-1">
    <mxGraphModel dx="1822" dy="794" grid="0" gridSize="10" guides="1" tooltips="1" connect="1" arrows="1" fold="1" page="0" pageScale="1" pageWidth="850" pageHeight="1100" background="none" math="0" shadow="0">
      <root>
        <mxCell id="0" />
        <mxCell id="1" parent="0" />
        <mxCell id="P4rQuA9o9oAKyjK2VUAx-17" value="" style="edgeStyle=orthogonalEdgeStyle;rounded=0;orthogonalLoop=1;jettySize=auto;html=1;fontSize=16;entryX=0.5;entryY=0;entryDx=0;entryDy=0;entryPerimeter=0;strokeColor=#7EA6E0;" edge="1" parent="1" source="P4rQuA9o9oAKyjK2VUAx-11" target="P4rQuA9o9oAKyjK2VUAx-20">
          <mxGeometry relative="1" as="geometry">
            <mxPoint x="35" y="420" as="targetPoint" />
          </mxGeometry>
        </mxCell>
        <mxCell id="P4rQuA9o9oAKyjK2VUAx-30" value="&lt;span style=&quot;font-size: 14px;&quot;&gt;Membership &lt;br&gt;API&#39;s&lt;/span&gt;" style="edgeLabel;html=1;align=center;verticalAlign=middle;resizable=0;points=[];fontSize=16;labelBackgroundColor=#ffffff;labelBorderColor=none;" vertex="1" connectable="0" parent="P4rQuA9o9oAKyjK2VUAx-17">
          <mxGeometry x="-0.0657" y="44" relative="1" as="geometry">
            <mxPoint x="-15" y="30.85" as="offset" />
          </mxGeometry>
        </mxCell>
        <mxCell id="P4rQuA9o9oAKyjK2VUAx-56" value="" style="edgeStyle=orthogonalEdgeStyle;rounded=0;orthogonalLoop=1;jettySize=auto;html=1;startArrow=none;startFill=0;endArrow=classic;endFill=1;fontSize=16;fontColor=#000000;strokeColor=#D4E1F5;shape=flexArrow;" edge="1" parent="1">
          <mxGeometry relative="1" as="geometry">
            <mxPoint x="363" y="340" as="sourcePoint" />
            <mxPoint x="427" y="340" as="targetPoint" />
          </mxGeometry>
        </mxCell>
        <mxCell id="P4rQuA9o9oAKyjK2VUAx-2" value=".Net Framework 4.0 MVC App" style="swimlane;fillColor=#dae8fc;strokeColor=#7EA6E0;" vertex="1" parent="1">
          <mxGeometry x="160" y="240" width="200" height="200" as="geometry">
            <mxRectangle x="135" y="240" width="160" height="23" as="alternateBounds" />
          </mxGeometry>
        </mxCell>
        <mxCell id="P4rQuA9o9oAKyjK2VUAx-10" value="&lt;font style=&quot;font-size: 13px&quot;&gt;Authentication&lt;/font&gt;" style="rounded=0;whiteSpace=wrap;html=1;fontSize=16;" vertex="1" parent="P4rQuA9o9oAKyjK2VUAx-2">
          <mxGeometry x="10" y="30" width="180" height="30" as="geometry" />
        </mxCell>
        <mxCell id="P4rQuA9o9oAKyjK2VUAx-11" value="&lt;font style=&quot;font-size: 14px&quot;&gt;User Management&lt;/font&gt;" style="rounded=0;whiteSpace=wrap;html=1;fontSize=16;" vertex="1" parent="P4rQuA9o9oAKyjK2VUAx-2">
          <mxGeometry x="10" y="70" width="180" height="30" as="geometry" />
        </mxCell>
        <mxCell id="P4rQuA9o9oAKyjK2VUAx-9" value="" style="html=1;verticalLabelPosition=bottom;align=center;labelBackgroundColor=#ffffff;verticalAlign=top;strokeWidth=2;strokeColor=#0080F0;shadow=0;dashed=0;shape=mxgraph.ios7.icons.note;pointerEvents=1;fontSize=16;" vertex="1" parent="P4rQuA9o9oAKyjK2VUAx-2">
          <mxGeometry x="75" y="145" width="29.7" height="29.7" as="geometry" />
        </mxCell>
        <mxCell id="P4rQuA9o9oAKyjK2VUAx-27" value="&lt;font style=&quot;font-size: 16px&quot;&gt;Music Store App&lt;/font&gt;" style="text;html=1;align=center;verticalAlign=middle;resizable=0;points=[];autosize=1;fontSize=16;" vertex="1" parent="P4rQuA9o9oAKyjK2VUAx-2">
          <mxGeometry x="24.849999999999994" y="176.7" width="130" height="20" as="geometry" />
        </mxCell>
        <mxCell id="P4rQuA9o9oAKyjK2VUAx-7" value="Current State" style="text;html=1;align=center;verticalAlign=middle;resizable=0;points=[];autosize=1;fontSize=16;fontStyle=0" vertex="1" parent="1">
          <mxGeometry x="205" y="210" width="110" height="20" as="geometry" />
        </mxCell>
        <mxCell id="P4rQuA9o9oAKyjK2VUAx-19" value="" style="edgeStyle=orthogonalEdgeStyle;rounded=0;orthogonalLoop=1;jettySize=auto;html=1;fontSize=16;entryX=0.5;entryY=0;entryDx=0;entryDy=0;entryPerimeter=0;strokeColor=#7EA6E0;" edge="1" parent="1" source="P4rQuA9o9oAKyjK2VUAx-12" target="P4rQuA9o9oAKyjK2VUAx-21">
          <mxGeometry relative="1" as="geometry">
            <mxPoint x="95" y="420" as="targetPoint" />
          </mxGeometry>
        </mxCell>
        <mxCell id="P4rQuA9o9oAKyjK2VUAx-29" value="&lt;span style=&quot;font-size: 14px;&quot;&gt;Entity&amp;nbsp;&lt;/span&gt;&lt;br style=&quot;font-size: 14px;&quot;&gt;&lt;span style=&quot;font-size: 14px;&quot;&gt;Framework&lt;/span&gt;" style="edgeLabel;html=1;align=center;verticalAlign=middle;resizable=0;points=[];fontSize=16;labelBackgroundColor=#ffffff;labelBorderColor=none;" vertex="1" connectable="0" parent="P4rQuA9o9oAKyjK2VUAx-19">
          <mxGeometry x="0.6486" y="1" relative="1" as="geometry">
            <mxPoint x="-1" y="-42" as="offset" />
          </mxGeometry>
        </mxCell>
        <mxCell id="P4rQuA9o9oAKyjK2VUAx-12" value="&lt;font style=&quot;font-size: 14px&quot;&gt;Application Logic&lt;/font&gt;" style="rounded=0;whiteSpace=wrap;html=1;fontSize=16;" vertex="1" parent="1">
          <mxGeometry x="170" y="349" width="180" height="30" as="geometry" />
        </mxCell>
        <mxCell id="P4rQuA9o9oAKyjK2VUAx-13" value="" style="pointerEvents=1;shadow=0;dashed=0;html=1;strokeColor=none;fillColor=#434445;aspect=fixed;labelPosition=center;verticalLabelPosition=bottom;verticalAlign=top;align=center;outlineConnect=0;shape=mxgraph.vvd.web_browser;fontSize=16;" vertex="1" parent="1">
          <mxGeometry x="19" y="110" width="70" height="49.7" as="geometry" />
        </mxCell>
        <mxCell id="P4rQuA9o9oAKyjK2VUAx-26" value="" style="edgeStyle=orthogonalEdgeStyle;rounded=0;orthogonalLoop=1;jettySize=auto;html=1;fontSize=16;entryX=0;entryY=0.5;entryDx=0;entryDy=0;strokeColor=#7EA6E0;" edge="1" parent="1" source="P4rQuA9o9oAKyjK2VUAx-14" target="P4rQuA9o9oAKyjK2VUAx-10">
          <mxGeometry relative="1" as="geometry" />
        </mxCell>
        <mxCell id="P4rQuA9o9oAKyjK2VUAx-31" value="&lt;span style=&quot;font-size: 14px&quot;&gt;Form &lt;br&gt;Authentication&lt;/span&gt;" style="edgeLabel;html=1;align=center;verticalAlign=middle;resizable=0;points=[];fontSize=16;labelBorderColor=none;" vertex="1" connectable="0" parent="P4rQuA9o9oAKyjK2VUAx-26">
          <mxGeometry x="-0.641" y="-21" relative="1" as="geometry">
            <mxPoint x="22" y="35" as="offset" />
          </mxGeometry>
        </mxCell>
        <mxCell id="P4rQuA9o9oAKyjK2VUAx-14" value="" style="shape=image;html=1;verticalAlign=top;verticalLabelPosition=bottom;labelBackgroundColor=#ffffff;imageAspect=0;aspect=fixed;image=https://cdn3.iconfinder.com/data/icons/tidee-food/24/016_049_cookie_biscuit_baking_food-128.png;fontSize=16;" vertex="1" parent="1">
          <mxGeometry x="67" y="139" width="40" height="40" as="geometry" />
        </mxCell>
        <mxCell id="P4rQuA9o9oAKyjK2VUAx-20" value="&lt;font style=&quot;font-size: 14px&quot;&gt;Identity&lt;/font&gt;" style="strokeWidth=2;html=1;shape=mxgraph.flowchart.database;whiteSpace=wrap;fontSize=16;" vertex="1" parent="1">
          <mxGeometry x="-24" y="471" width="76" height="80" as="geometry" />
        </mxCell>
        <mxCell id="P4rQuA9o9oAKyjK2VUAx-21" value="&lt;blockquote style=&quot;margin: 0 0 0 40px ; border: none ; padding: 0px&quot;&gt;&lt;/blockquote&gt;&lt;span style=&quot;font-size: 14px&quot;&gt;&lt;div&gt;&lt;span&gt;Music&amp;nbsp;&lt;/span&gt;&lt;span&gt;Store&lt;/span&gt;&lt;/div&gt;&lt;/span&gt;" style="strokeWidth=2;html=1;shape=mxgraph.flowchart.database;whiteSpace=wrap;fontSize=16;" vertex="1" parent="1">
          <mxGeometry x="73" y="470" width="76" height="80" as="geometry" />
        </mxCell>
        <mxCell id="P4rQuA9o9oAKyjK2VUAx-32" value="" style="html=1;whiteSpace=wrap;shape=isoCube2;backgroundOutline=1;isoAngle=15;labelBackgroundColor=#D4E1F5;fontSize=16;fillColor=#f5f5f5;strokeColor=#666666;fontColor=#333333;" vertex="1" parent="1">
          <mxGeometry x="437" y="295" width="75" height="81" as="geometry" />
        </mxCell>
        <mxCell id="P4rQuA9o9oAKyjK2VUAx-33" value="Modernize" style="text;html=1;align=center;verticalAlign=middle;resizable=0;points=[];autosize=1;fontSize=16;" vertex="1" parent="1">
          <mxGeometry x="427.5" y="389" width="85" height="23" as="geometry" />
        </mxCell>
        <mxCell id="P4rQuA9o9oAKyjK2VUAx-34" value=".Net Core MVC App" style="swimlane;fillColor=#ffe6cc;strokeColor=#d79b00;" vertex="1" parent="1">
          <mxGeometry x="599" y="235.5" width="200" height="200" as="geometry">
            <mxRectangle x="135" y="240" width="160" height="23" as="alternateBounds" />
          </mxGeometry>
        </mxCell>
        <mxCell id="P4rQuA9o9oAKyjK2VUAx-35" value="&lt;font style=&quot;font-size: 13px&quot;&gt;Authentication&lt;/font&gt;" style="rounded=0;whiteSpace=wrap;html=1;fontSize=16;" vertex="1" parent="P4rQuA9o9oAKyjK2VUAx-34">
          <mxGeometry x="10" y="30" width="180" height="30" as="geometry" />
        </mxCell>
        <mxCell id="P4rQuA9o9oAKyjK2VUAx-36" value="&lt;font style=&quot;font-size: 14px&quot;&gt;User Management&lt;/font&gt;" style="rounded=0;whiteSpace=wrap;html=1;fontSize=16;" vertex="1" parent="P4rQuA9o9oAKyjK2VUAx-34">
          <mxGeometry x="10" y="69" width="180" height="30" as="geometry" />
        </mxCell>
        <mxCell id="P4rQuA9o9oAKyjK2VUAx-37" value="" style="html=1;verticalLabelPosition=bottom;align=center;labelBackgroundColor=#ffffff;verticalAlign=top;strokeWidth=2;strokeColor=#0080F0;shadow=0;dashed=0;shape=mxgraph.ios7.icons.note;pointerEvents=1;fontSize=16;" vertex="1" parent="P4rQuA9o9oAKyjK2VUAx-34">
          <mxGeometry x="75" y="145" width="29.7" height="29.7" as="geometry" />
        </mxCell>
        <mxCell id="P4rQuA9o9oAKyjK2VUAx-38" value="&lt;font style=&quot;font-size: 16px&quot;&gt;Music Store App&lt;/font&gt;" style="text;html=1;align=center;verticalAlign=middle;resizable=0;points=[];autosize=1;fontSize=16;" vertex="1" parent="P4rQuA9o9oAKyjK2VUAx-34">
          <mxGeometry x="24.849999999999994" y="176.7" width="130" height="20" as="geometry" />
        </mxCell>
        <mxCell id="P4rQuA9o9oAKyjK2VUAx-39" value="Future State" style="text;html=1;align=center;verticalAlign=middle;resizable=0;points=[];autosize=1;fontSize=16;fontStyle=0" vertex="1" parent="1">
          <mxGeometry x="645" y="198" width="98" height="23" as="geometry" />
        </mxCell>
        <mxCell id="P4rQuA9o9oAKyjK2VUAx-47" value="" style="edgeStyle=orthogonalEdgeStyle;rounded=0;orthogonalLoop=1;jettySize=auto;html=1;fontSize=16;entryX=0.5;entryY=0;entryDx=0;entryDy=0;entryPerimeter=0;strokeColor=#FFB570;" edge="1" parent="1" source="P4rQuA9o9oAKyjK2VUAx-40" target="P4rQuA9o9oAKyjK2VUAx-45">
          <mxGeometry relative="1" as="geometry" />
        </mxCell>
        <mxCell id="P4rQuA9o9oAKyjK2VUAx-48" value="&lt;font style=&quot;font-size: 14px&quot;&gt;Entity&lt;br&gt;Framework&lt;/font&gt;" style="edgeLabel;html=1;align=center;verticalAlign=middle;resizable=0;points=[];fontSize=16;labelBorderColor=none;" vertex="1" connectable="0" parent="P4rQuA9o9oAKyjK2VUAx-47">
          <mxGeometry x="-0.2222" y="-40" relative="1" as="geometry">
            <mxPoint x="1" y="6.85" as="offset" />
          </mxGeometry>
        </mxCell>
        <mxCell id="P4rQuA9o9oAKyjK2VUAx-40" value="&lt;font style=&quot;font-size: 14px&quot;&gt;Application Logic&lt;/font&gt;" style="rounded=0;whiteSpace=wrap;html=1;fontSize=16;" vertex="1" parent="1">
          <mxGeometry x="609" y="343" width="180" height="30" as="geometry" />
        </mxCell>
        <mxCell id="P4rQuA9o9oAKyjK2VUAx-41" value="" style="pointerEvents=1;shadow=0;dashed=0;html=1;strokeColor=none;fillColor=#DF8C42;labelPosition=center;verticalLabelPosition=bottom;verticalAlign=top;align=center;outlineConnect=0;shape=mxgraph.veeam2.linux;labelBackgroundColor=#D4E1F5;fontSize=16;" vertex="1" parent="1">
          <mxGeometry x="581" y="420" width="33" height="31" as="geometry" />
        </mxCell>
        <mxCell id="P4rQuA9o9oAKyjK2VUAx-53" value="" style="edgeStyle=orthogonalEdgeStyle;rounded=0;orthogonalLoop=1;jettySize=auto;html=1;strokeColor=#FFB570;fontSize=16;fontColor=#000000;entryX=1;entryY=0.5;entryDx=0;entryDy=0;" edge="1" parent="1" target="P4rQuA9o9oAKyjK2VUAx-35">
          <mxGeometry relative="1" as="geometry">
            <mxPoint x="889" y="160" as="sourcePoint" />
            <mxPoint x="935" y="239.70000000000005" as="targetPoint" />
          </mxGeometry>
        </mxCell>
        <mxCell id="P4rQuA9o9oAKyjK2VUAx-54" value="&lt;font style=&quot;font-size: 14px&quot;&gt;.Net Core&lt;br&gt;Cookie&lt;br&gt;Authentication&lt;/font&gt;" style="edgeLabel;html=1;align=center;verticalAlign=middle;resizable=0;points=[];fontSize=16;fontColor=#000000;" vertex="1" connectable="0" parent="P4rQuA9o9oAKyjK2VUAx-53">
          <mxGeometry x="-0.21" y="2" relative="1" as="geometry">
            <mxPoint as="offset" />
          </mxGeometry>
        </mxCell>
        <mxCell id="P4rQuA9o9oAKyjK2VUAx-42" value="" style="pointerEvents=1;shadow=0;dashed=0;html=1;strokeColor=none;fillColor=#434445;aspect=fixed;labelPosition=center;verticalLabelPosition=bottom;verticalAlign=top;align=center;outlineConnect=0;shape=mxgraph.vvd.web_browser;fontSize=16;" vertex="1" parent="1">
          <mxGeometry x="900" y="110" width="70" height="49.7" as="geometry" />
        </mxCell>
        <mxCell id="P4rQuA9o9oAKyjK2VUAx-43" value="" style="shape=image;html=1;verticalAlign=top;verticalLabelPosition=bottom;labelBackgroundColor=#ffffff;imageAspect=0;aspect=fixed;image=https://cdn3.iconfinder.com/data/icons/tidee-food/24/016_049_cookie_biscuit_baking_food-128.png;fontSize=16;" vertex="1" parent="1">
          <mxGeometry x="882" y="140" width="40" height="40" as="geometry" />
        </mxCell>
        <mxCell id="P4rQuA9o9oAKyjK2VUAx-44" value="&lt;font style=&quot;font-size: 14px&quot;&gt;Identity&lt;/font&gt;" style="strokeWidth=2;html=1;shape=mxgraph.flowchart.database;whiteSpace=wrap;fontSize=16;" vertex="1" parent="1">
          <mxGeometry x="919" y="472" width="76" height="80" as="geometry" />
        </mxCell>
        <mxCell id="P4rQuA9o9oAKyjK2VUAx-45" value="&lt;blockquote style=&quot;margin: 0 0 0 40px ; border: none ; padding: 0px&quot;&gt;&lt;/blockquote&gt;&lt;span style=&quot;font-size: 14px&quot;&gt;&lt;div&gt;&lt;span&gt;Music&amp;nbsp;&lt;/span&gt;&lt;span&gt;Store&lt;/span&gt;&lt;/div&gt;&lt;/span&gt;" style="strokeWidth=2;html=1;shape=mxgraph.flowchart.database;whiteSpace=wrap;fontSize=16;" vertex="1" parent="1">
          <mxGeometry x="828" y="471" width="76" height="81" as="geometry" />
        </mxCell>
        <mxCell id="P4rQuA9o9oAKyjK2VUAx-50" value="" style="edgeStyle=orthogonalEdgeStyle;rounded=0;orthogonalLoop=1;jettySize=auto;html=1;fontSize=16;entryX=0.5;entryY=0;entryDx=0;entryDy=0;entryPerimeter=0;strokeColor=#FFB570;" edge="1" parent="1" source="P4rQuA9o9oAKyjK2VUAx-36" target="P4rQuA9o9oAKyjK2VUAx-44">
          <mxGeometry relative="1" as="geometry">
            <mxPoint x="894" y="314" as="targetPoint" />
          </mxGeometry>
        </mxCell>
        <mxCell id="P4rQuA9o9oAKyjK2VUAx-51" value="&lt;font style=&quot;font-size: 14px&quot;&gt;AspNet&lt;br&gt;Identity Core&lt;/font&gt;" style="edgeLabel;html=1;align=center;verticalAlign=middle;resizable=0;points=[];fontSize=16;labelBorderColor=none;" vertex="1" connectable="0" parent="P4rQuA9o9oAKyjK2VUAx-50">
          <mxGeometry x="0.0453" y="-58" relative="1" as="geometry">
            <mxPoint x="61" y="81" as="offset" />
          </mxGeometry>
        </mxCell>
        <mxCell id="P4rQuA9o9oAKyjK2VUAx-57" value="" style="edgeStyle=orthogonalEdgeStyle;rounded=0;orthogonalLoop=1;jettySize=auto;html=1;startArrow=none;startFill=0;endArrow=classic;endFill=1;fontSize=16;fontColor=#000000;strokeColor=#D4E1F5;shape=flexArrow;" edge="1" parent="1">
          <mxGeometry relative="1" as="geometry">
            <mxPoint x="528" y="340" as="sourcePoint" />
            <mxPoint x="590" y="340" as="targetPoint" />
          </mxGeometry>
        </mxCell>
        <mxCell id="P4rQuA9o9oAKyjK2VUAx-58" value="" style="aspect=fixed;html=1;points=[];align=center;image;fontSize=12;image=img/lib/mscae/VirtualMachineWindows.svg;labelBackgroundColor=#7EA6E0;strokeColor=#7EA6E0;" vertex="1" parent="1">
          <mxGeometry x="344" y="420" width="34.78" height="32" as="geometry" />
        </mxCell>
      </root>
    </mxGraphModel>
  </diagram>
</mxfile>
